<svg viewBox="0 0 200 200" xmlns="http://www.w3.org/2000/svg">
  <!-- Background circle -->
  <circle cx="100" cy="100" r="95" fill="#E3F2FD" stroke="#2196F3" stroke-width="2"/>
  
  <!-- Chat bubble main -->
  <path d="M 40 50 Q 40 30 60 30 L 140 30 Q 160 30 160 50 L 160 120 Q 160 140 140 140 L 80 140 L 60 165 L 70 140 L 60 140 Q 40 140 40 120 Z" fill="#2196F3"/>
  
  <!-- Chat bubble highlight -->
  <path d="M 50 45 Q 50 35 65 35 L 135 35 Q 155 35 155 50 L 155 115 Q 155 135 135 135 L 75 135 L 60 155 L 68 135 L 65 135 Q 50 135 50 120 Z" fill="#1E88E5"/>
  
  <!-- Message dots -->
  <circle cx="65" cy="80" r="5" fill="white"/>
  <circle cx="100" cy="80" r="5" fill="white"/>
  <circle cx="135" cy="80" r="5" fill="white"/>
  
  <!-- Optional: Add a subtle bot icon in corner -->
  <g transform="translate(145, 35)">
    <circle cx="0" cy="0" r="6" fill="#FFC107"/>
    <rect x="-3" y="3" width="6" height="4" fill="#FFC107"/>
  </g>
</svg>